<?xml version="1.0" encoding="UTF-8" standalone="no"?>
<!-- Created with Inkscape (http://www.inkscape.org/) -->

<svg
   xmlns:dc="http://purl.org/dc/elements/1.1/"
   xmlns:cc="http://creativecommons.org/ns#"
   xmlns:rdf="http://www.w3.org/1999/02/22-rdf-syntax-ns#"
   xmlns:svg="http://www.w3.org/2000/svg"
   xmlns="http://www.w3.org/2000/svg"
   xmlns:sodipodi="http://sodipodi.sourceforge.net/DTD/sodipodi-0.dtd"
   xmlns:inkscape="http://www.inkscape.org/namespaces/inkscape"
   width="140mm"
   height="140mm"
   viewBox="0 0 140 140"
   version="1.1"
   id="svg8"
   inkscape:version="0.92.3 (2405546, 2018-03-11)"
   sodipodi:docname="hg1hair.svg">
  <defs
     id="defs2">
    <inkscape:path-effect
       effect="spiro"
       id="path-effect876"
       is_visible="true" />
  </defs>
  <sodipodi:namedview
     id="base"
     pagecolor="#ffffff"
     bordercolor="#666666"
     borderopacity="1.0"
     inkscape:pageopacity="0.0"
     inkscape:pageshadow="2"
     inkscape:zoom="0.98994949"
     inkscape:cx="431.40596"
     inkscape:cy="313.24168"
     inkscape:document-units="mm"
     inkscape:current-layer="layer8"
     showgrid="false"
     inkscape:window-width="1920"
     inkscape:window-height="1017"
     inkscape:window-x="-8"
     inkscape:window-y="-8"
     inkscape:window-maximized="1" />
  <metadata
     id="metadata5">
    <rdf:RDF>
      <cc:Work
         rdf:about="">
        <dc:format>image/svg+xml</dc:format>
        <dc:type
           rdf:resource="http://purl.org/dc/dcmitype/StillImage" />
        <dc:title></dc:title>
      </cc:Work>
    </rdf:RDF>
  </metadata>
  <g
     inkscape:groupmode="layer"
     id="layer8"
     inkscape:label="hair"
     style="display:inline">
    <path
       id="path937-0-6"
       transform="scale(0.26458333)"
       style="display:inline;opacity:0.30199998;fill:#483737;fill-opacity:1;stroke:none;stroke-width:34.85866928;stroke-linecap:round;stroke-miterlimit:4;stroke-dasharray:none;stroke-dashoffset:0;stroke-opacity:1;paint-order:markers stroke fill"
       d="m 261.44922,129.13672 c -16.30302,5.91499 -30.87396,18.91321 -42.17383,41.13867 l 4.19727,7.56055 c 0,0 86.09964,-107.934495 180.44726,90.63086 0.0367,-0.17232 0.0683,-0.34578 0.11524,-0.51563 0.0215,-0.0725 0.068,-0.25877 0.0879,-0.21289 0.0572,-0.25815 0.12412,-0.51376 0.2539,-0.74609 0.17617,-0.55839 0.20524,-0.77595 0.40625,-1.09375 0.006,-0.12878 0.0167,-0.25513 0.0586,-0.44922 0.0326,-0.14723 0.0924,-0.28688 0.14648,-0.42774 0.005,-0.32899 0.0426,-0.64018 0.14844,-0.98242 0.009,-0.16923 0.01,-0.33979 0.043,-0.50586 0.0378,-0.18451 0.10762,-0.36044 0.17187,-0.53711 v -1.19531 -1.19336 -1.48437 -1.10547 -1.38477 -1.07031 -1.06836 -1.0293 -1.44922 -1.34179 -1.53906 -1.07422 -1.13086 -1.95117 -2.41602 -2.17773 -1.42969 c 0,-0.35868 4e-5,-0.71749 0,-1.07617 -4e-5,-0.34009 -7e-5,-0.6814 0,-1.02149 -3.4e-4,-0.43697 -0.002,-0.8736 0.002,-1.31054 0.003,-0.38301 -0.0155,-0.76551 -0.0117,-1.14844 0.008,-0.0931 0.012,-0.18629 0.0195,-0.2793 0.004,-0.0666 0.0121,-0.13327 0.0234,-0.19922 9e-4,-0.006 0.01,-0.017 0.01,-0.0117 0.10469,0.3744 0.1123,0.74863 0.53516,0.98438 -0.25247,-0.48712 -0.52449,-0.96436 -0.75781,-1.46094 -0.0571,-0.12113 0.0459,-0.90275 0,-1.05664 0.003,-0.54827 -3.6e-4,-1.09635 -0.01,-1.64453 0.008,-0.31465 0.003,-0.30404 0.0293,-0.62305 0.002,-0.0254 -9.1e-4,-0.0693 -0.004,-0.10937 -0.0436,-0.16063 -0.0873,-0.32179 -0.13086,-0.48243 0.003,-0.0287 0.0155,-0.0575 0.0117,-0.0859 -0.0189,-0.0907 -0.06,-0.17526 -0.0801,-0.26563 -0.1155,-0.52058 -0.21806,-0.91792 -0.14453,-1.41211 -0.17243,-0.49257 -0.19838,-0.48581 -0.20508,-0.88476 -0.0113,-0.34341 -0.0144,-0.68296 0.0234,-1.02539 0.002,-0.0212 -0.003,-0.0561 -0.004,-0.084 -0.0206,-0.0573 -0.0438,-0.11415 -0.0547,-0.17383 -0.0553,-0.30354 -0.093,-0.61066 -0.1211,-0.91796 -0.21055,-0.49342 -0.22923,-0.81627 -0.16015,-1.4043 0.01,-0.0378 0.0106,-0.0274 0.0137,-0.0352 -0.15326,-0.2775 -0.29838,-0.44695 -0.25782,-1.10547 0.007,-0.10776 0.0312,-0.21359 0.0625,-0.3164 -0.0243,-0.099 -0.0207,-0.0956 -0.0586,-0.23633 -0.0956,-0.35501 -0.19268,-0.70958 -0.28906,-1.06445 -0.51976,-1.91962 0.36405,-3.00729 1.39648,-2.98243 0.80301,0.0193 1.69549,0.71135 2.08985,2.20704 0.23129,0.87722 0.57416,1.64868 0.46875,2.4082 0.0369,0.10126 0.0801,0.20103 0.0996,0.30664 0.0881,0.47779 0.0664,0.66617 0.0371,1.0293 0.002,0.005 0.007,0.009 0.01,0.0137 0.0999,0.21044 0.12525,0.44631 0.15625,0.67969 0.77542,-0.58663 1.83616,-1.79618 2.36328,-1.64454 0.21539,0.062 0.34047,0.35511 0.31641,1.01758 -0.002,0.0447 -0.0121,0.79842 -0.0918,0.49805 0.0129,0.0739 0.0358,0.1265 0.041,0.15234 0.17056,0.10153 0.30763,0.18884 0.41601,0.2793 0.009,0.006 0.0211,0.0145 0.0312,0.0215 0.0144,0.007 0.0296,0.0154 0.043,0.0215 0.0882,0.0148 0.0773,0.01 0.18946,0.0293 0.0688,0.0419 0.13766,0.0839 0.20703,0.125 0.52362,-0.0449 0.9849,-0.036 1.5,0.20898 0.21127,0.1005 0.45516,0.21007 0.5625,0.41797 0.096,0.18565 -0.66467,-0.49945 -0.52539,-0.34375 0.19674,0.2199 0.42863,0.405 0.66015,0.58984 0.0607,-0.01 0.13053,-0.0194 0.19531,-0.0293 -0.0274,-0.089 -0.0836,-0.28533 -0.0937,-0.31836 -0.52441,-1.71659 0.0813,-2.86554 0.93946,-3.14844 -1.073,-4.61351 -2.05224,-9.20044 -2.60157,-13.74805 -22.99441,-30.73921 -54.71638,-59.03874 -86.82812,-73.3164 z m 144.63672,91.06055 c -0.32756,0.0255 -0.74087,0.11874 -0.90235,0.26367 -0.15961,0.14326 -0.28556,0.29387 -0.39257,0.44336 0.58724,-0.1397 1.2086,-0.21233 1.68945,-0.5625 0.17537,-0.12773 -0.067,-0.17004 -0.39453,-0.14453 z m 1.20703,2.5332 c 0.0374,0.0526 0.0861,0.0975 0.12891,0.14648 0.004,-0.009 0.006,-0.0154 0.01,-0.0234 -0.0892,-0.0993 -0.18519,-0.18849 -0.13867,-0.12305 z m 0.16797,0.1582 c -0.004,0.007 -0.009,0.0129 -0.0137,0.0195 0.0361,0.0402 0.0705,0.0815 0.10742,0.1211 -0.007,-0.0179 -0.008,-0.0247 -0.0156,-0.043 -0.0106,-0.0261 -0.0497,-0.0629 -0.0781,-0.0977 z m -0.16211,0.2461 c -0.0209,0.026 -0.0439,0.0521 -0.0664,0.0781 0.0107,-0.003 0.0226,-0.003 0.0332,-0.006 0.0341,-0.0755 0.004,-0.009 0.0332,-0.0723 z m -2.91602,0.18554 c 0.006,0.0182 0.004,0.0212 0.0137,0.043 0.0113,0.0291 0.0621,0.11169 0.0508,0.082 -0.0221,-0.0573 -0.0418,-0.0788 -0.0645,-0.125 z m 0.31055,2.54688 c 0.0102,0.0494 0.0194,0.10013 0.0332,0.14843 0.008,0.0215 -0.002,-0.0465 -0.008,-0.0684 -0.007,-0.0269 -0.0162,-0.0536 -0.0254,-0.0801 z m 10.125,36.87109 v 0.56641 c 0.0149,0.0528 -0.0161,0.16162 0.0215,0.13281 0.0503,-0.039 0.003,-0.12596 0.004,-0.18945 -0.0104,-0.16859 -0.0141,-0.3395 -0.0254,-0.50977 z"
       inkscape:connector-curvature="0" />
    <path
       style="fill:#800080;stroke:#000000;stroke-width:4.5;stroke-linecap:square;stroke-linejoin:miter;stroke-miterlimit:4;stroke-dasharray:none;stroke-opacity:1;paint-order:fill markers stroke"
       d="M 37.616278,25.772374 C 56.122995,-21.386194 134.1506,20.01139 116.75177,82.110816 124.50726,63.303659 75.298675,10.566954 57.331778,45.905636 29.766001,43.744364 40.346033,81.940516 47.34335,89.593632 34.359884,99.631404 -0.19269583,31.99321 37.616278,25.772374 Z"
       id="path1025"
       inkscape:connector-curvature="0"
       sodipodi:nodetypes="ccccc" />
    <path
       style="display:inline;opacity:0.44200003;fill:#ffaaaa;stroke:none;stroke-width:5.05487156;stroke-linecap:butt;stroke-linejoin:miter;stroke-miterlimit:4;stroke-dasharray:none;stroke-opacity:1"
       d="M 67.074171,7.6011569 C 56.056802,7.4631109 46.004427,12.639904 40.39208,24.648694 61.027143,-3.1966591 112.23877,21.567705 116.99826,65.206425 117.90475,31.878596 90.342693,7.8927099 67.074171,7.6011569 Z M 114.88469,79.595205 c -0.0819,0.30907 -0.1627,0.61796 -0.2496,0.92811 0.10641,-0.25806 0.20063,-0.52363 0.28474,-0.79478 -0.0116,-0.0444 -0.0233,-0.0888 -0.0351,-0.13333 z"
       id="path1025-1-3"
       inkscape:connector-curvature="0"
       sodipodi:nodetypes="sccsccccc" />
  </g>
</svg>
